Coordinates
version=1
nRows=40
nColumns=30
inDegrees=yes

Units are S.I. units (second, meters, Newtons, ...)
Angles are in degrees.

endheader
time	floatyaw	floatroll	floatpitch	floatx	floaty	floatz	pro_sup_l	deviation_l	flexion_l	cmc_flexion_l	cmc_abduction_l	mp_flexion_l	ip_flexion_l	2mcp_flexion_l	2mcp_abduction_l	2pm_flexion_l	2md_flexion_l	3mcp_flexion_l	3mcp_abduction_l	3pm_flexion_l	3md_flexion_l	4mcp_flexion_l	4mcp_abduction_l	4pm_flexion_l	4md_flexion_l	5mcp_flexion_l	5mcp_abduction_l	5pm_flexion_l	5md_flexion_l
-1.495000	-160.147433	-5.066637	-73.570646	0.081692	-0.181677	-0.014663	101.627625	2.855540	0.678745	16.806648	7.416478	-24.911636	-41.233675	28.797609	5.782256	41.290752	27.728847	22.719876	3.820298	42.040944	28.000555	10.616507	-4.230497	51.200301	34.806458	-2.957812	-6.557946	61.943751	40.876356
-1.485000	-160.147433	-5.066637	-73.570646	0.081681	-0.181678	-0.014666	101.630122	2.858389	0.669275	16.769626	7.446190	-24.920192	-41.255830	28.816817	5.781633	41.314757	27.708022	22.729297	3.819096	42.076119	27.993918	10.642273	-4.233055	51.194919	34.802495	-2.944069	-6.562546	61.951816	40.872898
-1.475000	-160.147433	-5.066637	-73.570646	0.081669	-0.181681	-0.014669	101.627225	2.857523	0.661114	16.741467	7.488116	-24.939308	-41.288220	28.832288	5.786409	41.333702	27.686495	22.732576	3.818067	42.116642	27.991419	10.665031	-4.235301	51.190338	34.801496	-2.937317	-6.565190	61.965335	40.876779
-1.465000	-160.147433	-5.066637	-73.570646	0.081659	-0.181685	-0.014674	101.623219	2.853856	0.656545	16.723263	7.535119	-24.964608	-41.320638	28.839596	5.796776	41.349392	27.673566	22.726601	3.818312	42.156918	27.996775	10.678484	-4.236806	51.191902	34.805393	-2.935986	-6.567113	61.984679	40.888360
-1.455000	-160.147433	-5.066637	-73.570646	0.081652	-0.181687	-0.014679	101.622312	2.849184	0.656794	16.712507	7.578712	-24.989368	-41.344889	28.839098	5.809861	41.362936	27.673650	22.712463	3.820285	42.188721	28.009178	10.679237	-4.237975	51.202872	34.814389	-2.938039	-6.569386	62.009124	40.903965
-1.445000	-160.147433	-5.066637	-73.570646	0.081649	-0.181684	-0.014685	101.627217	2.845551	0.661828	16.704281	7.611136	-25.007546	-41.357767	28.835054	5.821121	41.373387	27.684093	22.694185	3.823565	42.204475	28.023632	10.667447	-4.239608	51.222842	34.826708	-2.942301	-6.571908	62.036118	40.916594
-1.435000	-160.147433	-5.066637	-73.570646	0.081650	-0.181677	-0.014692	101.638395	2.844537	0.670770	16.693002	7.627678	-25.016240	-41.360732	28.832848	5.826708	41.377871	27.697098	22.676087	3.827136	42.201038	28.034004	10.646454	-4.242160	51.247426	34.839474	-2.948615	-6.573556	62.061354	40.919437
-1.425000	-160.147433	-5.066637	-73.570646	0.081655	-0.181665	-0.014698	101.654225	2.846880	0.682572	16.674201	7.628270	-25.016353	-41.357239	28.835846	5.825284	41.373474	27.704440	22.660426	3.829997	42.181552	28.036559	10.621788	-4.245272	51.269339	34.849859	-2.957310	-6.573258	62.080087	40.910135
-1.415000	-160.147433	-5.066637	-73.570646	0.081662	-0.181649	-0.014703	101.671933	2.852473	0.696515	16.646158	7.617354	-25.011370	-41.350051	28.843401	5.818225	41.359882	27.702115	22.646494	3.831677	42.154184	28.031775	10.599667	-4.247901	51.280532	34.855762	-2.968762	-6.570980	62.089116	40.892800
-1.405000	-160.147433	-5.066637	-73.570646	0.081669	-0.181632	-0.014705	101.688594	2.860419	0.712326	16.610943	7.602167	-25.005260	-41.340339	28.851070	5.808353	41.340793	27.692237	22.631391	3.832339	42.128556	28.023720	10.584967	-4.248915	51.275013	34.856139	-2.983369	-6.567791	62.088177	40.876101
-1.395000	-160.147433	-5.066637	-73.570646	0.081677	-0.181613	-0.014705	101.701519	2.868906	0.729898	16.574072	7.590688	-25.000847	-41.328696	28.853064	5.798289	41.322600	27.681203	22.611969	3.832501	42.111892	28.017747	10.579041	-4.247778	51.251881	34.851489	-3.001634	-6.564998	62.079863	40.868499
-1.385000	-160.147433	-5.066637	-73.570646	0.081684	-0.181596	-0.014703	101.708171	2.875286	0.748863	16.542364	7.590364	-24.999390	-41.316688	28.845525	5.789542	41.310890	27.675541	22.586972	3.832593	42.106651	28.017868	10.578508	-4.244949	51.217358	34.844485	-3.024013	-6.563118	62.068269	40.873815
-1.375000	-160.147433	-5.066637	-73.570646	0.081689	-0.181581	-0.014702	101.706354	2.876845	0.768289	16.520886	7.607412	-25.001167	-41.307463	28.828555	5.782620	41.307347	27.678258	22.558131	3.832673	42.110538	28.025074	10.576245	-4.241818	51.183913	34.839805	-3.050527	-6.561538	62.057352	40.890013
-1.365000	-160.147433	-5.066637	-73.570646	0.081692	-0.181571	-0.014704	101.695163	2.872156	0.786709	16.510804	7.645575	-25.006360	-41.304970	28.805786	5.777604	41.309395	27.687938	22.529506	3.832431	42.118603	28.037331	10.564649	-4.240180	51.165723	34.842450	-3.080366	-6.559062	62.049748	40.911500
-1.355000	-160.147433	-5.066637	-73.570646	0.081693	-0.181566	-0.014709	101.676182	2.862150	0.802507	16.509585	7.703782	-25.015560	-41.312336	28.782129	5.774481	41.312636	27.700670	22.505431	3.831452	42.126152	28.051052	10.539528	-4.241449	51.172266	34.855160	-3.111671	-6.554771	62.046075	40.932631
-1.345000	-160.147433	-5.066637	-73.570646	0.081690	-0.181567	-0.014716	101.653942	2.850067	0.814573	16.513193	7.774038	-25.029485	-41.330304	28.761445	5.773070	41.313846	27.712904	22.488399	3.829504	42.130806	28.063050	10.502375	-4.245910	51.203524	34.876551	-3.141613	-6.548517	62.044689	40.949779
-1.335000	-160.147433	-5.066637	-73.570646	0.081687	-0.181570	-0.014723	101.634864	2.840216	0.822941	16.518391	7.842110	-25.048078	-41.356371	28.745440	5.772939	41.312185	27.723030	22.478214	3.826659	42.132751	28.071765	10.459843	-4.252365	51.249451	34.901201	-3.166934	-6.540864	62.042284	40.961233
-1.325000	-160.147433	-5.066637	-73.570646	0.081686	-0.181573	-0.014727	101.624858	2.836140	0.828997	16.523523	7.892339	-25.069690	-41.385026	28.733888	5.773643	41.308304	27.730996	22.472747	3.823168	42.133521	28.077250	10.420922	-4.258463	51.294058	34.921685	-3.184982	-6.532781	62.035661	40.966213
-1.315000	-160.147433	-5.066637	-73.570646	0.081689	-0.181571	-0.014728	101.626749	2.839108	0.834897	16.527854	7.914642	-25.091087	-41.409263	28.725486	5.775167	41.302964	27.737044	22.469489	3.819246	42.134609	28.080309	10.393349	-4.261715	51.322337	34.931505	-3.194826	-6.525365	62.023987	40.964383
-1.305000	-160.147433	-5.066637	-73.570646	0.081695	-0.181563	-0.014725	101.639098	2.847701	0.842380	16.530740	7.909366	-25.108620	-41.423268	28.718596	5.778122	41.296878	27.741027	22.466764	3.814988	42.137007	28.081642	10.380788	-4.260713	51.326950	34.927505	-3.197749	-6.519602	62.010170	40.956082
-1.295000	-160.147433	-5.066637	-73.570646	0.081704	-0.181550	-0.014721	101.657114	2.858701	0.851731	16.531587	7.886700	-25.120120	-41.425332	28.711561	5.783423	41.291849	27.742815	22.463915	3.810465	42.141684	28.081538	10.381808	-4.255842	51.311514	34.910720	-3.196688	-6.516104	62.000109	40.942560
-1.285000	-160.147433	-5.066637	-73.570646	0.081712	-0.181534	-0.014717	101.674881	2.868705	0.861681	16.530275	7.861214	-25.126437	-41.419316	28.702811	5.791586	41.291628	27.743098	22.460727	3.805923	42.150025	28.080088	10.390852	-4.249045	51.288550	34.885537	-3.194872	-6.514898	61.999744	40.925741
-1.275000	-160.147433	-5.066637	-73.570646	0.081717	-0.181520	-0.014715	101.687368	2.875518	0.870413	16.527180	7.845283	-25.131422	-41.413265	28.691222	5.802043	41.300737	27.743477	22.456844	3.801871	42.163204	28.077511	10.400588	-4.242767	51.272865	34.857944	-3.194497	-6.515436	62.011436	40.907691
-1.265000	-160.147433	-5.066637	-73.570646	0.081718	-0.181510	-0.014714	101.691392	2.878650	0.877030	16.522433	7.845058	-25.139910	-41.415373	28.676928	5.812943	41.321215	27.745408	22.451808	3.798967	42.180716	28.074217	10.404506	-4.238707	51.273863	34.833826	-3.196236	-6.516923	62.032077	40.890212
-1.255000	-160.147433	-5.066637	-73.570646	0.081716	-0.181504	-0.014712	101.685769	2.878990	0.882399	16.515139	7.860184	-25.154601	-41.429412	28.662130	5.821727	41.349568	27.748720	22.445547	3.797751	42.199665	28.070756	10.398759	-4.237071	51.291291	34.817835	-3.199724	-6.518805	62.054644	40.874702
-1.245000	-160.147433	-5.066637	-73.570646	0.081714	-0.181500	-0.014706	101.671288	2.878174	0.888742	16.503550	7.886055	-25.173672	-41.452242	28.650994	5.826305	41.376786	27.751121	22.438619	3.798393	42.216158	28.068000	10.382825	-4.236692	51.316845	34.812786	-3.204448	-6.521145	62.072502	40.862235
-1.235000	-160.147433	-5.066637	-73.570646	0.081716	-0.181493	-0.014693	101.650644	2.878018	0.898195	16.486319	7.916685	-25.190872	-41.474869	28.648053	5.826197	41.392286	27.749582	22.431787	3.800595	42.228116	28.067557	10.359129	-4.235940	51.340164	34.819361	-3.210221	-6.524577	62.083542	40.853774
-1.225000	-160.147433	-5.066637	-73.570646	0.081724	-0.181483	-0.014673	101.627909	2.880041	0.911389	16.463861	7.946766	-25.198449	-41.486472	28.655563	5.822895	41.389612	27.743023	22.425195	3.803701	42.237097	28.071882	10.331988	-4.233819	51.354888	34.836027	-3.217059	-6.529774	62.091132	40.850461
-1.215000	-160.147433	-5.066637	-73.570646	0.081736	-0.181468	-0.014648	101.607239	2.884898	0.927098	16.438557	7.972568	-25.191434	-41.479235	28.671228	5.819141	41.370313	27.734416	22.417831	3.806932	42.247324	28.083540	10.306150	-4.230548	51.360939	34.859266	-3.225020	-6.536809	62.101358	40.853849
-1.205000	-160.147433	-5.066637	-73.570646	0.081750	-0.181453	-0.014622	101.591147	2.891811	0.943232	16.413571	7.991937	-25.170715	-41.451507	28.687957	5.817489	41.343493	27.730496	22.407778	3.809629	42.262419	28.103706	10.285121	-4.227234	51.362424	34.884246	-3.234632	-6.544946	62.118891	40.865832
-1.195000	-160.147433	-5.066637	-73.570646	0.081762	-0.181441	-0.014599	101.579423	2.898456	0.958360	16.391343	8.003783	-25.143063	-41.408091	28.696396	5.819011	41.321239	27.738680	22.393188	3.811415	42.282246	28.130754	10.269788	-4.224924	51.363698	34.905917	-3.247575	-6.553125	62.144451	40.887972
-1.185000	-160.147433	-5.066637	-73.570646	0.081772	-0.181432	-0.014586	101.569679	2.901751	0.972580	16.372947	8.007356	-25.118138	-41.358144	28.689317	5.822887	41.312578	27.762726	22.373468	3.812256	42.302285	28.160034	10.258144	-4.223822	51.366831	34.920299	-3.266593	-6.560690	62.175063	40.920219
-1.175000	-160.147433	-5.066637	-73.570646	0.081777	-0.181426	-0.014582	101.559501	2.899510	0.987192	16.358438	8.001845	-25.104088	-41.311961	28.665554	5.827018	41.319340	27.799772	22.349925	3.812448	42.316066	28.185279	10.246561	-4.223263	51.371704	34.925495	-3.293956	-6.567639	62.206049	40.959569
-1.165000	-160.147433	-5.066637	-73.570646	0.081780	-0.181421	-0.014588	101.548749	2.892133	1.003659	16.347332	7.986743	-25.103944	-41.277656	28.631095	5.829171	41.335932	27.840739	22.325416	3.812484	42.318947	28.201038	10.232075	-4.222362	51.377446	34.921998	-3.329223	-6.574059	62.232802	40.999749
-1.155000	-160.147433	-5.066637	-73.570646	0.081783	-0.181414	-0.014600	101.540150	2.883045	1.022728	16.338568	7.962883	-25.114564	-41.258578	28.596557	5.827927	41.352641	27.874131	22.303177	3.812794	42.310651	28.204840	10.214293	-4.220733	51.383200	34.912230	-3.367973	-6.579227	62.251244	41.032698
-1.145000	-160.147433	-5.066637	-73.570646	0.081788	-0.181401	-0.014610	101.537334	2.877115	1.044135	16.330139	7.933363	-25.128696	-41.252459	28.572521	5.823064	41.360383	27.891227	22.285544	3.813460	42.295078	28.197995	10.195792	-4.218697	51.387634	34.899609	-3.402794	-6.581326	62.257517	41.051540
-1.135000	-160.147433	-5.066637	-73.570646	0.081796	-0.181382	-0.014614	101.541534	2.877696	1.066702	16.319118	7.903542	-25.139031	-41.252945	28.565322	5.815492	41.354571	27.889862	22.273392	3.814141	42.277902	28.184758	10.180894	-4.216972	51.388364	34.887564	-3.426276	-6.578344	62.248525	41.053627
-1.125000	-160.147433	-5.066637	-73.570646	0.081806	-0.181359	-0.014611	101.549546	2.884211	1.088582	16.302476	7.879806	-25.141840	-41.252849	28.575204	5.807054	41.336700	27.874959	22.266474	3.814316	42.263759	28.170448	10.173622	-4.216165	51.382604	34.878791	-3.434366	-6.569715	62.224034	41.041968
-1.115000	-160.147433	-5.066637	-73.570646	0.081817	-0.181336	-0.014604	101.554868	2.892161	1.107743	16.278399	7.867475	-25.137986	-41.247215	28.597150	5.800196	41.313243	27.855793	22.264098	3.813680	42.254745	28.159560	10.175826	-4.216447	51.369014	34.874911	-3.428273	-6.557448	62.189052	41.024274
-1.105000	-160.147433	-5.066637	-73.570646	0.081825	-0.181317	-0.014595	101.551451	2.895766	1.122803	16.247266	7.868832	-25.130882	-41.234504	28.623526	5.797297	41.292328	27.841485	22.265352	3.812412	42.250624	28.154638	10.186158	-4.217583	51.349415	34.876463	-3.414154	-6.545662	62.154011	41.010073
